{"title":"20141123 - Desperate Measures - The Cry For Help .mp4","uid":11561961,"size":118993064,"categoryP":"video","categoryS":"other","magnet":"?xt=urn:btih:f50edf5124f2542c440debe06cc63d85d048f3a3&amp;dn=20141123+-+Desperate+Measures+-+The+Cry+For+Help+.mp4&amp;tr=udp%3A%2F%2Ftracker.openbittorrent.com%3A80&amp;tr=udp%3A%2F%2Fopen.demonii.com%3A1337&amp;tr=udp%3A%2F%2Ftracker.coppersurfer.tk%3A6969&amp;tr=udp%3A%2F%2Fexodus.desync.com%3A6969","seeders":2,"leechers":0,"uploader":"davidrpeet","files":1,"time":1416891447,"description":"Desperate Measures - The Cry For Help \nWeekly sermons from CrossRoads Church in Decatur, Texas\n\n\nGeneral\nFormat                                   : MPEG-4\nFormat profile                           : Base Media / Version 2\nCodec ID                                 : mp42\nFile size                                : 113 MiB\nDuration                                 : 24mn 5s\nOverall bit rate mode                    : Variable\nOverall bit rate                         : 659 Kbps\nMovie name                               : Desperate Measures - The Cry For Help \nAlbum                                    : CrossRoads Church \nAlbum/Performer                          : Darren Embree\nPerformer                                : Darren Embree\nComposer                                 : http://crossroadspeople.com/\nGenre                                    : Speech\nRecorded date                            : 2014\nEncoded date                             : UTC 2014-11-24 07:52:30\nTagged date                              : UTC 2014-11-24 07:52:30\nCover                                    : Yes\nComment                                  : CrossRoads To Go Video Podcasts\n\nVideo\nID                                       : 1\nFormat                                   : AVC\nFormat/Info                              : Advanced Video Codec\nFormat profile                           : &lt;a class=&quot;__cf_email__&quot; href=&quot;/cdn-cgi/l/email-protection&quot; data-cfemail=&quot;4008292728000c736e71&quot;&gt;[email&amp;#160;protected]&lt;/a&gt;&lt;script cf-hash='f9e31' type=&quot;text/javascript&quot;&gt;\n/* &lt;![CDATA[ */!function(){try{var t=&quot;currentScript&quot;in document?document.currentScript:function(){for(var t=document.getElementsByTagName(&quot;script&quot;),e=t.length;e--;)if(t[e].getAttribute(&quot;cf-hash&quot;))return t[e]}();if(t&amp;&amp;t.previousSibling){var e,r,n,i,c=t.previousSibling,a=c.getAttribute(&quot;data-cfemail&quot;);if(a){for(e=&quot;&quot;,r=parseInt(a.substr(0,2),16),n=2;a.length-n;n+=2)i=parseInt(a.substr(n,2),16)^r,e+=String.fromCharCode(i);e=document.createTextNode(e),c.parentNode.replaceChild(e,c)}}}catch(u){}}();/* ]]&gt; */&lt;/script&gt;\nFormat settings, CABAC                   : Yes\nFormat settings, ReFrames                : 4 frames\nCodec ID                                 : avc1\nCodec ID/Info                            : Advanced Video Coding\nDuration                                 : 24mn 5s\nBit rate                                 : 551 Kbps\nWidth                                    : 640 pixels\nHeight                                   : 470 pixels\nDisplay aspect ratio                     : 4:3\nFrame rate mode                          : Constant\nFrame rate                               : 29.970 fps\nColor space                              : YUV\nChroma subsampling                       : 4:2:0\nBit depth                                : 8 bits\nScan type                                : Progressive\nBits/(Pixel*Frame)                       : 0.061\nStream size                              : 94.9 MiB (84%)\nWriting library                          : x264 core 142 r11 24e4fed\nEncoded date                             : UTC 2014-11-24 07:52:30\nTagged date                              : UTC 2014-11-24 07:52:30\nColor primaries                          : BT.601 NTSC\nTransfer characteristics                 : BT.601\nMatrix coefficients                      : BT.601\n\nAudio\nID                                       : 2\nFormat                                   : AAC\nFormat/Info                              : Advanced Audio Codec\nFormat profile                           : LC\nCodec ID                                 : 40\nDuration                                 : 24mn 5s\nBit rate mode                            : Variable\nBit rate                                 : 103 Kbps\nChannel(s)                               : 2 channels\nChannel positions                        : Front: L R\nSampling rate                            : 48.0 KHz\nCompression mode                         : Lossy\nStream size                              : 17.7 MiB (16%)\nEncoded date                             : UTC 2014-11-24 07:52:30\nTagged date                              : UTC 2014-11-24 07:52:30","torrent":{"xt":"urn:btih:f50edf5124f2542c440debe06cc63d85d048f3a3","amp;dn":"20141123+-+Desperate+Measures+-+The+Cry+For+Help+.mp4","amp;tr":["udp%3A%2F%2Ftracker.openbittorrent.com%3A80","udp%3A%2F%2Fopen.demonii.com%3A1337","udp%3A%2F%2Ftracker.coppersurfer.tk%3A6969","udp%3A%2F%2Fexodus.desync.com%3A6969"],"infoHash":"f50edf5124f2542c440debe06cc63d85d048f3a3","infoHashBuffer":{"type":"Buffer","data":[245,14,223,81,36,242,84,44,68,13,235,224,108,198,61,133,208,72,243,163]},"announce":[],"urlList":[]}}